<mxfile host="app.diagrams.net" modified="2021-03-12T03:18:05.093Z" agent="5.0 (Macintosh; Intel Mac OS X 11_3_0) AppleWebKit/537.36 (KHTML, like Gecko) Chrome/89.0.4389.82 Safari/537.36" etag="5QQLEbamaHGoO8uKuP9H" version="14.4.7" type="github">
  <diagram id="s5ME2o-91XYzcztq1kmA" name="第 1 页">
    <mxGraphModel dx="889" dy="621" grid="1" gridSize="10" guides="1" tooltips="1" connect="1" arrows="1" fold="1" page="1" pageScale="1" pageWidth="827" pageHeight="1169" math="0" shadow="0">
      <root>
        <mxCell id="0" />
        <mxCell id="1" parent="0" />
        <mxCell id="GawBvw2eRWU37IZvuRxq-8" style="edgeStyle=orthogonalEdgeStyle;curved=0;rounded=1;sketch=0;orthogonalLoop=1;jettySize=auto;html=1;entryX=0.5;entryY=0;entryDx=0;entryDy=0;" edge="1" parent="1" source="GawBvw2eRWU37IZvuRxq-1" target="GawBvw2eRWU37IZvuRxq-3">
          <mxGeometry relative="1" as="geometry" />
        </mxCell>
        <mxCell id="GawBvw2eRWU37IZvuRxq-1" value="" style="ellipse;html=1;shape=startState;" vertex="1" parent="1">
          <mxGeometry x="100" y="60" width="30" height="30" as="geometry" />
        </mxCell>
        <mxCell id="GawBvw2eRWU37IZvuRxq-6" style="edgeStyle=orthogonalEdgeStyle;rounded=0;orthogonalLoop=1;jettySize=auto;html=1;entryX=0;entryY=0.5;entryDx=0;entryDy=0;" edge="1" parent="1" source="GawBvw2eRWU37IZvuRxq-3" target="GawBvw2eRWU37IZvuRxq-5">
          <mxGeometry relative="1" as="geometry" />
        </mxCell>
        <mxCell id="GawBvw2eRWU37IZvuRxq-3" value="Use Case" style="ellipse;whiteSpace=wrap;html=1;" vertex="1" parent="1">
          <mxGeometry x="45" y="290" width="140" height="70" as="geometry" />
        </mxCell>
        <mxCell id="GawBvw2eRWU37IZvuRxq-5" value="" style="ellipse;html=1;shape=endState;" vertex="1" parent="1">
          <mxGeometry x="400" y="310" width="30" height="30" as="geometry" />
        </mxCell>
      </root>
    </mxGraphModel>
  </diagram>
</mxfile>
